<?xml version="1.0" encoding="utf-8"?>
<!-- Generator: Adobe Illustrator 18.1.1, SVG Export Plug-In . SVG Version: 6.00 Build 0)  -->
<!DOCTYPE svg PUBLIC "-//W3C//DTD SVG 1.1//EN" "http://www.w3.org/Graphics/SVG/1.1/DTD/svg11.dtd">
<svg version="1.1" xmlns="http://www.w3.org/2000/svg" xmlns:xlink="http://www.w3.org/1999/xlink" x="0px" y="0px" width="32px"
	 height="32px" viewBox="0 0 32 32" enable-background="new 0 0 32 32" xml:space="preserve">
<g id="Guides__x26__Labels">
</g>
<g id="Icons_-_V2">
	<g>
		<path d="M20.218,5.784c-3.711-3.711-9.726-3.712-13.436-0.001c-3.709,3.71-3.709,9.725,0.001,13.435
			c3.097,3.097,7.796,3.6,11.424,1.525l8.021,8.021l3.537-3.536l-8.021-8.021C23.817,13.578,23.316,8.881,20.218,5.784z
			 M17.389,8.612c2.149,2.148,2.149,5.629,0,7.776c-2.148,2.149-5.63,2.149-7.778,0.001C7.464,14.241,7.464,10.76,9.61,8.612
			C11.758,6.463,15.242,6.463,17.389,8.612z"/>
		<polygon points="16.999,13.5 14.501,13.5 14.5,16 12.5,16 12.5,13.5 9.998,13.5 9.998,11.5 12.501,11.5 12.5,8.999 14.501,9 
			14.501,11.5 16.999,11.5 		"/>
	</g>
</g>
</svg>
