<?xml version="1.0" encoding="utf-8"?>
<!-- Generator: Adobe Illustrator 18.1.1, SVG Export Plug-In . SVG Version: 6.00 Build 0)  -->
<!DOCTYPE svg PUBLIC "-//W3C//DTD SVG 1.1//EN" "http://www.w3.org/Graphics/SVG/1.1/DTD/svg11.dtd">
<svg version="1.1" xmlns="http://www.w3.org/2000/svg" xmlns:xlink="http://www.w3.org/1999/xlink" x="0px" y="0px" width="32px"
	 height="32px" viewBox="0 0 32 32" enable-background="new 0 0 32 32" xml:space="preserve">
<g id="Guides__x26__Labels">
</g>
<g id="Icons_-_V2">
	<path d="M15.849,4C10.402,4.04,6,8.464,6,13.917c0,2.658,1.134,5.229,2.8,7.033l6.299,6.299c0.183,0.21,0.452,0.341,0.753,0.341
		c0.3,0,0.568-0.131,0.752-0.341l6.271-6.274c1.68-1.804,2.822-4.386,2.822-7.058C25.696,8.464,21.295,4.04,15.849,4z
		 M15.834,17.915c-2.209,0-4-1.791-4-4s1.791-4,4-4s4,1.791,4,4S18.043,17.915,15.834,17.915z"/>
</g>
</svg>
