<?xml version="1.0" encoding="utf-8"?>
<!-- Generator: Adobe Illustrator 18.1.1, SVG Export Plug-In . SVG Version: 6.00 Build 0)  -->
<!DOCTYPE svg PUBLIC "-//W3C//DTD SVG 1.1//EN" "http://www.w3.org/Graphics/SVG/1.1/DTD/svg11.dtd">
<svg version="1.1" id="Layer_1" xmlns="http://www.w3.org/2000/svg" xmlns:xlink="http://www.w3.org/1999/xlink" x="0px" y="0px"
	 width="32px" height="32px" viewBox="0 0 32 32" enable-background="new 0 0 32 32" xml:space="preserve">
<g>
	<path d="M27.799,19.858l1.385-1.397L13.674,2.905l-1.385,1.385l1.414,1.414L2.343,17.029l12.728,12.728l11.314-11.314
		L27.799,19.858z M5.172,17.029L15.1,7.1L25,17L5.172,17.029z"/>
	<path d="M29.406,25.71L29.406,25.71l-1.607-1.609l-1.601,1.602c-0.413,0.41-0.673,0.978-0.669,1.609
		c-0.003,1.254,1.014,2.271,2.269,2.27c1.255,0,2.271-1.016,2.271-2.272C30.069,26.685,29.817,26.12,29.406,25.71z"/>
</g>
</svg>
